<svg xmlns="http://www.w3.org/2000/svg" viewBox="0 0 512 512" width="512" height="512">
  <defs>
    <radialGradient id="oceanGradient" cx="30%" cy="30%">
      <stop offset="0%" style="stop-color:#4DD0E1;stop-opacity:1" />
      <stop offset="100%" style="stop-color:#0097A7;stop-opacity:1" />
    </radialGradient>
    <radialGradient id="landGradient" cx="30%" cy="30%">
      <stop offset="0%" style="stop-color:#66BB6A;stop-opacity:1" />
      <stop offset="100%" style="stop-color:#2E7D32;stop-opacity:1" />
    </radialGradient>
  </defs>
  
  <!-- Ocean/Water -->
  <circle cx="256" cy="256" r="256" fill="url(#oceanGradient)"/>
  
  <!-- Landmasses -->
  <g fill="url(#landGradient)">
    <!-- Africa -->
    <path d="M 230 150 Q 250 140 270 150 Q 290 160 300 180 L 310 220 Q 315 250 310 280 Q 300 310 280 330 L 250 350 Q 230 340 220 320 L 210 280 Q 205 250 210 220 Q 215 190 230 150 Z"/>
    
    <!-- Europe -->
    <path d="M 240 100 Q 260 90 280 95 L 300 110 Q 310 125 305 140 L 290 150 Q 270 145 255 140 Q 245 130 240 120 L 240 100 Z"/>
    
    <!-- Asia/Middle East -->
    <path d="M 305 140 Q 320 135 340 140 L 365 155 Q 380 170 390 190 L 395 210 Q 390 230 380 240 L 360 250 Q 340 245 325 235 L 310 220 Q 305 200 305 180 L 305 140 Z"/>
    
    <!-- South America -->
    <path d="M 180 240 Q 195 230 210 235 L 220 250 Q 225 270 220 290 L 210 320 Q 200 350 185 370 L 170 380 Q 160 370 155 355 L 150 320 Q 155 290 165 270 L 180 240 Z"/>
    
    <!-- North America -->
    <path d="M 120 120 Q 140 100 160 105 L 185 120 Q 200 135 205 155 L 200 180 Q 190 200 175 210 L 155 215 Q 135 210 125 195 L 115 170 Q 110 145 120 120 Z"/>
    
    <!-- Australia (small) -->
    <path d="M 380 300 Q 395 295 405 305 L 410 320 Q 405 335 395 340 L 380 338 Q 375 330 375 320 L 380 300 Z"/>
  </g>
  
  <!-- Shine/Highlight -->
  <ellipse cx="200" cy="180" rx="80" ry="60" fill="white" opacity="0.15"/>
</svg>

